<?xml version="1.0" encoding="utf-8"?>
<svg version="1.1" id="Layer_1" xmlns="http://www.w3.org/2000/svg" xmlns:xlink="http://www.w3.org/1999/xlink" x="0px" y="0px"
	 viewBox="-148.4 453 200.4 38.4" style="enable-background:new -148.4 453 200.4 38.4;" xml:space="preserve">
<style type="text/css">
	.st0{fill:#CC9466;}
</style>
<g id="XMLID_1_">
	<path class="st0" d="M51.4,491.4c1.6-1.7-0.4-4.1-2-5.7c-1.5-1.7-3.5-3.2-4.5-5.1c-0.4-0.8-0.6-1.7-1.7-2.3
		c-1.6-0.9-4.3-0.5-6.3-1.2c-2.8-1-2.6-3.6-5-5c-2.5-1.5-6.9-0.8-10-2c-1.6-0.6-2.5-1.6-3.4-2.5c-2.2-2.3-4.8-4.7-8.6-6
		c-3.8-1.4-9.2-1.4-12.1,0.6c-2.6,1.9-3.4,5.3-7.8,5.1c-2.1-0.1-3.9-0.8-4.8-2c-2-2.5-4.6-4.8-7.7-6.8c-0.6-0.4-1.4-0.8-2.2-0.9
		c-1.7-0.2-3.1,0.7-3.9,1.5c-1.3,1.4-1.7,3.1-5.2,3.5c-1.8,0.2-3.5-0.1-5-0.7c-3.3-1.3-5-3.6-7.4-5.4c-2-1.4-4.5-2.5-7.3-3.2
		c-3.3-0.8-7.1,0.1-8.8,2.1c-1.6,1.9-5.3,3.3-8.9,3.5c-5.4,0.4-10.6-0.9-16-1.2c-0.7-0.1-5.2-0.4-5,1.9c0.8,9.6-9.6,10.3-10.5,10.4
		c-3,0.3-9.6-2.3-12-3c-3.9-1.2-5.4,1.9-5.6,2.3c-1,2.3-2.1,4.5-4.1,6.5c-1.8,1.7-4,2.7-6.8,3.6c-3.3,1.1-2.6,2.6-4.7,4.5
		c-1.8,1.6-5.2,1.9-7.9,2.7c-2.7,0.8-5.8,3-4.1,4.7"/>
</g>
</svg>
