<?xml version="1.0" encoding="utf-8"?>
<!-- Generator: Adobe Illustrator 19.0.0, SVG Export Plug-In . SVG Version: 6.00 Build 0)  -->
<svg version="1.1" id="Layer_1" xmlns="http://www.w3.org/2000/svg" xmlns:xlink="http://www.w3.org/1999/xlink" x="0px" y="0px"
	 viewBox="-32 44.5 53.7 32.5" style="enable-background:new -32 44.5 53.7 32.5;" xml:space="preserve">
<style type="text/css">
	.st0{fill:none;stroke:#FCB942;stroke-width:0.36;stroke-miterlimit:10;}
</style>
<g id="XMLID_1_">
	<path id="XMLID_11_" class="st0" d="M21.2,60.8c0,1.3-2.2,2.2-2.8,3.5c-0.5,1.2,0.3,3.4-0.6,4.4c-0.9,0.9-3.2,0.3-4.4,1
		c-1.1,0.7-1.3,3.1-2.5,3.7c-1.2,0.5-3.1-0.9-4.5-0.4c-1.2,0.4-2.1,2.6-3.4,2.9c-1.3,0.2-2.9-1.5-4.3-1.4c-1.2,0-2.5,2-3.9,2
		c-1.4,0-2.6-2.1-3.9-2.2c-1.4-0.1-3,1.7-4.3,1.4c-1.3-0.3-2.2-2.5-3.4-2.9c-1.3-0.4-3.3,1-4.5,0.4c-1.3-0.6-1.5-3-2.5-3.7
		c-1.2-0.8-3.5-0.1-4.4-1c-1-1-0.1-3.2-0.6-4.4c-0.6-1.2-2.8-2.1-2.8-3.5c0-1.3,2.2-2.2,2.8-3.5c0.6-0.9-0.2-3.1,0.7-4.2
		c0.9-0.9,3.2-0.3,4.4-1c1.1-0.7,1.3-3.1,2.5-3.7c1.2-0.5,3.2,0.9,4.5,0.5c1.2-0.4,2.1-2.6,3.4-2.9c1.3-0.3,2.9,1.5,4.2,1.4
		c1.3-0.1,2.6-2.2,3.9-2.2c1.4,0,2.6,2.1,3.9,2.2c1.4,0.1,3-1.7,4.3-1.4c1.3,0.3,2.2,2.5,3.4,2.9c1.3,0.4,3.3-1,4.5-0.4
		c1.3,0.6,1.5,3,2.5,3.7c1.2,0.8,3.5,0.1,4.4,1c1,1,0.1,3.2,0.6,4.4C19,58.6,21.2,59.4,21.2,60.8z"/>
</g>
</svg>
